<?xml version="1.0" standalone="no"?>
<!DOCTYPE svg PUBLIC "-//W3C//DTD SVG 20010904//EN"
 "http://www.w3.org/TR/2001/REC-SVG-20010904/DTD/svg10.dtd">
<svg version="1.0" xmlns="http://www.w3.org/2000/svg"
 width="512.000000pt" height="512.000000pt" viewBox="0 0 512.000000 512.000000"
 preserveAspectRatio="xMidYMid meet">

<g transform="translate(0.000000,512.000000) scale(0.100000,-0.100000)"
fill="#000000" stroke="none">
<path d="M199 3533 c-35 -81 -97 -273 -122 -379 l-24 -101 91 -47 c80 -41 99
-47 153 -46 60 0 64 -2 113 -45 67 -59 74 -62 169 -74 84 -11 127 -27 218 -84
29 -17 89 -52 133 -76 60 -33 90 -57 112 -89 38 -56 82 -82 135 -82 58 0 86
-13 151 -69 59 -50 109 -79 175 -101 53 -17 100 -61 138 -128 40 -71 63 -98
114 -129 75 -48 144 -105 190 -158 l45 -54 -87 48 c-49 27 -127 69 -175 95
-63 34 -100 61 -130 98 -121 145 -119 143 -308 203 -105 33 -148 57 -228 129
-92 82 -104 88 -193 96 -92 8 -112 19 -178 101 -62 76 -85 86 -172 71 -104
-18 -121 -16 -170 21 -76 58 -104 68 -218 77 -58 4 -108 5 -111 3 -8 -7 -15
-237 -12 -354 l4 -106 140 -7 c263 -12 498 -53 752 -130 292 -89 535 -200 966
-443 414 -232 482 -270 508 -278 13 -4 22 -10 20 -13 -46 -88 -96 -246 -105
-334 -7 -73 15 -135 63 -177 59 -52 106 -53 165 -4 62 53 73 120 39 259 -31
133 -99 264 -136 264 -20 0 -17 13 9 38 50 48 110 14 159 -90 21 -45 28 -50
76 -64 l52 -15 0 -55 c0 -65 24 -118 74 -161 46 -41 85 -49 132 -27 36 17 94
85 94 111 0 20 8 16 41 -21 34 -40 120 -86 159 -86 43 0 132 60 167 112 43 64
55 128 43 222 -33 259 -166 556 -250 556 -30 0 -24 14 20 54 73 66 143 43 217
-72 69 -107 134 -299 163 -479 11 -66 14 -72 30 -63 30 16 60 75 67 128 15
129 -94 424 -170 459 -17 8 -17 10 7 36 28 30 69 36 103 12 96 -68 197 -407
162 -545 -3 -9 8 -17 33 -24 67 -17 158 43 192 126 58 138 -69 564 -184 620
l-30 15 20 26 c30 38 81 52 119 33 83 -43 184 -269 216 -484 15 -101 8 -175
-20 -219 -14 -21 -14 -24 0 -29 12 -5 15 -23 15 -80 0 -66 2 -74 19 -74 45 0
51 9 51 82 0 60 -2 69 -17 67 -40 -4 -47 3 -18 18 17 8 40 24 52 35 l22 20 33
-37 c18 -21 55 -48 82 -61 46 -21 52 -22 85 -8 52 21 117 93 131 145 15 54 7
130 -25 255 -42 160 -101 271 -161 302 l-36 18 36 32 c46 40 92 43 134 7 78
-65 182 -366 182 -526 0 -74 -33 -154 -78 -190 -26 -20 -26 -21 -8 -35 49 -35
139 3 176 76 26 51 26 130 0 237 -35 146 -112 283 -159 283 -11 0 -5 10 16 32
61 61 127 30 178 -84 18 -41 31 -58 41 -54 7 3 54 8 103 12 l89 7 11 61 c21
117 31 231 31 351 l0 121 -151 111 c-83 62 -157 109 -164 107 -22 -9 -35 -53
-35 -122 0 -40 -5 -73 -12 -80 -17 -17 -53 -15 -123 7 -72 23 -90 17 -156 -44
-58 -55 -119 -76 -158 -54 -14 8 -51 51 -81 96 -30 45 -68 95 -84 112 -65 68
-152 80 -227 32 -25 -15 -71 -38 -102 -49 l-56 -21 -78 99 c-70 89 -82 99
-118 105 -93 15 -168 42 -299 106 -120 60 -146 69 -193 69 -88 0 -149 -34
-198 -111 -30 -46 -49 -112 -75 -256 -26 -140 -43 -185 -82 -218 -35 -30 -95
-34 -138 -9 -48 29 -95 115 -139 256 -96 306 -127 369 -197 399 -72 32 -110
16 -224 -96 -116 -114 -170 -145 -252 -145 -74 0 -114 17 -171 71 l-45 44
-108 -133 c-149 -183 -128 -170 -217 -129 -151 70 -234 137 -560 456 -209 204
-318 295 -410 342 l-37 20 -21 -48z m4038 -1285 c17 -18 38 -48 47 -66 18 -35
17 -42 -31 -182 -3 -9 -15 12 -29 48 -29 78 -72 144 -102 157 -29 13 -28 18 9
49 41 34 69 33 106 -6z m-1263 -499 c46 -36 49 -52 30 -150 l-18 -88 -34 72
c-35 76 -76 127 -101 127 -10 0 -6 9 14 30 34 36 71 39 109 9z"/>
<path d="M4420 1436 c0 -91 3 -118 16 -130 18 -19 20 -19 45 -6 17 10 19 22
19 130 l0 120 -40 0 -40 0 0 -114z"/>
<path d="M4682 1503 c3 -46 4 -48 36 -51 l32 -3 0 50 0 51 -36 0 -35 0 3 -47z"/>
<path d="M3850 1376 c0 -135 7 -154 54 -142 33 8 40 49 31 171 l-7 95 -39 0
-39 0 0 -124z"/>
<path d="M3577 1355 c-4 -25 -16 -64 -28 -86 -17 -34 -19 -47 -10 -65 13 -29
46 -31 61 -5 5 11 10 60 10 110 0 70 -3 91 -14 91 -8 0 -16 -17 -19 -45z"/>
<path d="M2127 1213 c-26 -53 -52 -142 -62 -216 -9 -64 20 -125 73 -154 33
-19 40 -20 68 -8 49 20 77 67 76 130 -1 104 -77 295 -117 295 -8 0 -25 -21
-38 -47z"/>
<path d="M3230 1036 l0 -73 -57 -21 c-67 -25 -159 -82 -408 -253 -369 -255
-579 -385 -804 -497 l-155 -76 60 -18 c32 -10 113 -29 179 -43 640 -130 1287
-18 1846 321 103 62 285 196 364 268 l50 45 -53 1 c-68 0 -163 32 -327 110
-265 125 -381 165 -517 176 l-78 7 0 63 0 64 -50 0 -50 0 0 -74z"/>
<path d="M2890 1035 l0 -54 33 14 c28 11 32 19 35 54 3 41 3 41 -32 41 l-36 0
0 -55z"/>
<path d="M2450 869 c0 -43 3 -50 16 -45 9 3 22 6 30 6 10 0 14 13 14 45 0 43
-1 45 -30 45 -29 0 -30 -1 -30 -51z"/>
<path d="M2180 786 c0 -41 7 -47 38 -35 16 6 22 16 22 39 0 27 -3 30 -30 30
-28 0 -30 -3 -30 -34z"/>
</g>
</svg>
